<svg width="121" height="124" viewBox="0 0 121 124" fill="none" xmlns="http://www.w3.org/2000/svg">
<path d="M120.7 62.9743C120.775 58.7406 120.338 54.5135 119.4 50.3843H61.5801V73.2343H95.5196C94.8396 78.9143 91.1396 87.4643 82.9301 93.2344L82.8101 93.9944L101.09 108.164L102.36 108.284C113.99 97.5444 120.7 81.7343 120.7 62.9943" fill="#4285F4"/>
<path d="M61.5794 123.184C78.2094 123.184 92.1696 117.704 102.36 108.264L82.9294 93.2144C77.7294 96.8444 70.7494 99.3744 61.5794 99.3744C53.7978 99.3224 46.2299 96.8224 39.948 92.2294C33.6662 87.6364 28.9891 81.1835 26.5794 73.7842L25.8594 73.8442L6.85938 88.5544L6.60938 89.2444C11.728 99.4454 19.5826 108.021 29.2954 114.015C39.0081 120.009 50.1962 123.183 61.6094 123.184" fill="#34A853"/>
<path d="M26.5495 73.7845C25.2051 69.8638 24.5126 65.7492 24.4995 61.6045C24.5302 57.4653 25.2049 53.3562 26.4995 49.4246V48.6046L7.1995 33.6646L6.5695 33.9646C2.25 42.538 0 52.0044 0 61.6045C0 71.2045 2.25 80.6711 6.5695 89.2444L26.5695 73.7845" fill="#FBBC05"/>
<path d="M61.5791 23.8344C70.3894 23.7063 78.9075 26.9924 85.3491 33.0044L102.729 16.0044C91.5806 5.55113 76.8203 -0.182566 61.5391 0.00443441C50.1259 0.00513441 38.9378 3.17973 29.225 9.17333C19.5123 15.1669 11.6577 23.7435 6.53906 33.9444L26.4791 49.4244C28.9153 42.0221 33.6131 35.5708 39.9102 30.9799C46.2073 26.3889 53.7863 23.8897 61.5791 23.8344Z" fill="#EB4335"/>
</svg>
